<?xml version="1.0" encoding="utf-8"?>
<!-- Generator: Adobe Illustrator 23.0.6, SVG Export Plug-In . SVG Version: 6.00 Build 0)  -->
<svg version="1.1" id="Layer_1" xmlns="http://www.w3.org/2000/svg" xmlns:xlink="http://www.w3.org/1999/xlink" x="0px" y="0px"
	 viewBox="0 0 449 453" style="enable-background:new 0 0 449 453;" xml:space="preserve">
<style type="text/css">
	.st0{fill:#F8D3C6;}
	.st1{fill:#F5C6B8;}
	.st2{fill:#902022;}
	.st3{fill:#101722;}
	.st4{fill:#EBEBEC;}
	.st5{fill:#A62729;}
	.st6{fill:#FDFEFD;}
	.st7{fill:#06293B;}
	.st8{fill:none;stroke:#06293B;stroke-width:2;stroke-miterlimit:10;}
	.st9{fill:#FFFFFF;}
	.st10{fill:#A52728;}
	.st11{fill:#0D1924;}
	.st12{fill:#BB4945;}
	.st13{fill:#9C2929;}
	.st14{fill:#090808;}
</style>
<path class="st0" d="M106.85,153.03c0,0-47.49,16.85-56.68,27.57c0,0-45.45,19.4-19.4,98.55c0,0,33.19,76.6,138.89,107.23
	c0,0,97.53,39.83,140.43-27.57c0,0,25.02-35.74,24-87.32S354,184.18,354,184.18s21.96-31.15,11.74-65.36s-27.06-48-54.13-52.6
	c-27.06-4.6-122.55,63.32-127.66,58.72C178.85,120.35,125.75,150.99,106.85,153.03z"/>
<path class="st1" d="M72.72,169.45c0,0,92.43,19.91,132.77,79.15c0,0,74.24,93.53,77.31,136.42c0,0,39.37-23.09,48.56-80.79
	c0,0-17.1-45.93-54.89-69.93c0,0-35.74-54.13-177.7-75.57L72.72,169.45z"/>
<path class="st2" d="M271.06,147.76c0,0-3.06,8.96-4.6,11.08c0,0,20.63-4.01,24.87-5.89c4.24-1.89,21.69-6.48,21.69-6.48l10.49-1.65
	c0,0,0.24-3.65,0.59-6.37c0,0-16.62,2.95-19.21,3.54C302.3,142.58,275.07,149.3,271.06,147.76z"/>
<path class="st3" d="M210.59,238.89"/>
<path class="st3" d="M227.57,120.29c0,0,1.97,4.31-2.72,6.66c0,0-10.97,5.63-5.72,14.91c0,0,5.35,8.72,9.19,8.91
	c0,0,1.41-0.47,1.13-4.88c0,0-3.66-4.41,0.66-6.47c0,0,5.18-1.36,4.46-7.81c0,0,0.41-1.01,1.44-0.35
	C236.01,131.26,242.01,124.41,227.57,120.29z"/>
<path class="st4" d="M222.2,225.1l-1.21-6.04l33.82-55.43c0,0-1.45,10.39,1.33,12.8L222.2,225.1z"/>
<path class="st5" d="M232.68,327.75c0,0-3.52-38.38,37.74-85.07c0,0,26.23-37.42,27.19-39.02c0.96-1.6,37.74-54.69,26.23-103.62
	c0,0-8.32-82.2-112.26-78.68c0,0-61.41,2.88-76.44,82.52c0,0-3.2,37.42,15.03,62.37c0,0,3.2,7.04,9.59,3.2l28.14-23.35
	c0,0,6.4-1.28,1.92-8.32c-4.48-7.04-12.15-39.02,6.72-55.97c0,0,27.51-28.78,64.29,1.28c0,0,15.35,10.23,14.39,39.34
	c0,0-2.24,42.54-37.42,80.6l-27.51,41.58c0,0-27.19,39.66-26.23,65.88l-0.32,11.83c0,0-3.2,8,8.64,7.04L232.68,327.75z"/>
<circle class="st0" cx="381.14" cy="255.53" r="27.85"/>
<polygon class="st6" points="260.2,331.38 266.06,334.9 263.62,343.21 261.27,342.92 "/>
<path class="st7" d="M258.33,257.66l10.3,15.96c0,0-11.42,41.83-8.43,57.77l6.39,3.17l23.15-62.98c0,0,1.36-1.02-1.02-3.06
	l-15.08-30.35C273.64,238.16,261.16,253.44,258.33,257.66z"/>
<line class="st8" x1="406.41" y1="195.37" x2="432.58" y2="195.37"/>
<line class="st8" x1="406.8" y1="204.89" x2="432.97" y2="204.89"/>
<line class="st8" x1="406.21" y1="214.4" x2="420.38" y2="214.4"/>
<g>
	<path class="st7" d="M121.57,358c-5.05-1.21-9.94-2.97-14.75-4.89l-3.59-1.49c-1.19-0.51-2.36-1.08-3.54-1.62
		c-1.17-0.55-2.36-1.07-3.52-1.66l-3.46-1.78c-9.19-4.81-17.94-10.44-26.31-16.57c-4.06-3.23-8.27-6.28-12.11-9.78
		c-1.94-1.73-3.94-3.39-5.82-5.17l-5.58-5.43l-2.76-2.75l-2.62-2.88l-5.22-5.77c-3.38-3.93-6.53-8.06-9.76-12.11
		c-0.02-0.02-0.01-0.05,0.01-0.07c0.02-0.02,0.05-0.01,0.07,0.01l5.09,5.87l2.52,2.95c0.84,0.98,1.67,1.98,2.58,2.9l5.33,5.64
		l2.66,2.82l2.8,2.69l5.55,5.41c1.88,1.78,3.87,3.43,5.79,5.15c3.79,3.53,7.94,6.61,11.94,9.88c8.28,6.19,16.95,11.88,26.07,16.76
		l3.42,1.82c1.15,0.6,2.33,1.13,3.49,1.7c1.17,0.55,2.33,1.14,3.51,1.66l3.56,1.53c4.77,1.98,9.64,3.8,14.66,5.07
		c0.03,0.01,0.05,0.03,0.04,0.06C121.63,357.99,121.6,358,121.57,358z"/>
</g>
<g>
	<path class="st7" d="M14.05,275.1c0.97,1.19,1.95,2.37,2.93,3.53c0.49,0.58,1.06,1.1,1.48,1.72c0.45,0.61,0.82,1.25,1.28,1.87
		l-0.04,0.09c-0.83-0.2-1.45-0.78-2-1.31c-0.56-0.55-0.93-1.24-1.36-1.88c-0.85-1.29-1.64-2.61-2.37-3.96L14.05,275.1z"/>
</g>
<g>
	<path class="st7" d="M362.24,125.3c2.41,8.25,2.43,17.04,1.15,25.51c-1.37,8.48-4.17,16.72-8.14,24.34l-3.16,5.6l-3,5.65
		c-2.01,3.77-4,7.56-5.94,11.37c-1.99,3.79-3.91,7.6-5.79,11.44l-1.39,2.89l-1.32,2.92c-0.4,0.99-0.86,1.96-1.22,2.96l-0.53,1.51
		c-0.13,0.51-0.24,1.03-0.36,1.55l-0.1-0.01c0.09-0.53,0.17-1.06,0.27-1.59l0.45-1.55c0.31-1.03,0.71-2.03,1.06-3.04l1.21-2.98
		l1.28-2.95c1.75-3.91,3.64-7.76,5.53-11.6c1.95-3.82,3.94-7.61,5.95-11.38l3.1-5.64l3.23-5.53c4.03-7.51,6.9-15.64,8.36-24.05
		c1.4-8.38,1.52-17.14-0.75-25.39L362.24,125.3z"/>
</g>
<g>
	<path class="st7" d="M177.44,40.94c2.24-2.22,4.74-4.14,7.33-5.93c2.59-1.79,5.3-3.4,8.1-4.84c5.57-2.93,11.5-5.16,17.59-6.8
		c6.09-1.63,12.34-2.63,18.63-3.06c1.57-0.07,3.15-0.23,4.72-0.22l4.73-0.02c3.15,0.15,6.3,0.24,9.43,0.62
		c12.57,1.17,24.84,4.57,36.62,9.01c2.94,1.14,5.8,2.46,8.7,3.68c2.84,1.36,5.68,2.72,8.5,4.11c2.77,1.49,5.56,2.95,8.31,4.48
		l8.08,4.87l-0.05,0.09c-10.92-6.2-22.12-11.97-33.9-16.28l-4.41-1.61c-0.74-0.26-1.47-0.55-2.21-0.8l-2.24-0.7l-4.48-1.4
		c-1.51-0.42-3.03-0.8-4.54-1.19c-3.01-0.87-6.1-1.4-9.16-2.09l-4.64-0.75c-0.77-0.12-1.54-0.27-2.32-0.35l-2.33-0.25
		c-3.11-0.4-6.24-0.52-9.37-0.69l-4.7-0.01c-1.57-0.02-3.13,0.13-4.69,0.18c-6.25,0.38-12.47,1.32-18.54,2.9
		c-6.06,1.57-11.99,3.73-17.58,6.59c-2.8,1.4-5.52,2.99-8.12,4.74c-2.6,1.75-5.12,3.65-7.37,5.83L177.44,40.94z"/>
</g>
<g>
	<path class="st9" d="M381.15,274.08c-1.41,0-2.6-0.5-3.59-1.49c-0.98-0.99-1.47-2.18-1.47-3.57c0-1.41,0.49-2.6,1.47-3.59
		s2.18-1.47,3.59-1.47c1.41,0,2.6,0.49,3.59,1.47c0.98,0.98,1.47,2.18,1.47,3.59c0,1.39-0.49,2.58-1.47,3.57
		C383.75,273.59,382.55,274.08,381.15,274.08z"/>
	<path class="st9" d="M376.95,260.47l-1.02-21.95c-0.03-0.84,0.64-1.54,1.49-1.54h7.45c0.85,0,1.52,0.7,1.49,1.55l-1.14,21.95
		c-0.03,0.8-0.69,1.42-1.49,1.42h-5.29C377.64,261.9,376.98,261.27,376.95,260.47z"/>
</g>
<path class="st9" d="M373.64,358.5"/>
<path class="st10" d="M379.77,346.86c0-0.61-0.09-1.19-0.25-1.74c-0.01-0.06-0.01-0.12-0.02-0.19l-0.02,0.03
	c-0.8-2.53-3.17-4.36-5.97-4.36c-3.46,0-6.26,2.8-6.26,6.26s2.8,6.26,6.26,6.26c0.22,0,0.44-0.01,0.66-0.03l-0.38,0.58v5.12
	c0,0,4.96-4.68,5.78-10.36C379.7,347.93,379.77,347.4,379.77,346.86z"/>
<path class="st10" d="M395.43,347.05c0-0.61-0.09-1.19-0.25-1.74c-0.01-0.06-0.01-0.12-0.02-0.19l-0.02,0.03
	c-0.8-2.53-3.17-4.36-5.97-4.36c-3.46,0-6.26,2.8-6.26,6.26s2.8,6.26,6.26,6.26c0.22,0,0.44-0.01,0.66-0.03l-0.38,0.58v5.12
	c0,0,4.96-4.68,5.78-10.36C395.36,348.12,395.43,347.6,395.43,347.05z"/>
<g>
	<path class="st10" d="M374.73,358.35c0,0,4.96-4.68,5.78-10.36c0.13-0.5,0.21-1.03,0.21-1.57c0-0.61-0.13-1.18-0.25-1.74
		c-0.02-0.07-0.03-0.1-0.03-0.1l-0.02-0.05c-0.8-2.53-3.17-4.36-5.97-4.36c-3.46,0-6.26,2.8-6.26,6.26s2.8,6.26,6.26,6.26
		c0.22,0,0.44-0.01,0.66-0.03"/>
	<path class="st10" d="M388.16,358.83c0,0,4.96-4.68,5.78-10.36c0.13-0.5,0.21-1.03,0.21-1.57c0-0.61-0.13-1.18-0.25-1.74
		c-0.02-0.07-0.03-0.1-0.03-0.1l-0.02-0.05c-0.8-2.53-3.17-4.36-5.97-4.36c-3.46,0-6.26,2.8-6.26,6.26s2.8,6.26,6.26,6.26
		c0.22,0,0.44-0.01,0.66-0.03"/>
</g>
<g>
	<path class="st10" d="M103.6,90.63c0,0-4.96-4.68-5.78-10.36c-0.13-0.5-0.21-1.03-0.21-1.57c0-0.61,0.13-1.18,0.25-1.74
		c0.02-0.07,0.03-0.1,0.03-0.1l0.02-0.05c0.8-2.53,3.17-4.36,5.97-4.36c3.46,0,6.26,2.8,6.26,6.26s-2.8,6.26-6.26,6.26
		c-0.22,0-0.44-0.01-0.66-0.03"/>
	<path class="st10" d="M90.17,91.11c0,0-4.96-4.68-5.78-10.36c-0.13-0.5-0.21-1.03-0.21-1.57c0-0.61,0.13-1.18,0.25-1.74
		c0.02-0.07,0.03-0.1,0.03-0.1l0.02-0.05c0.8-2.53,3.17-4.36,5.97-4.36c3.46,0,6.26,2.8,6.26,6.26s-2.8,6.26-6.26,6.26
		c-0.22,0-0.44-0.01-0.66-0.03"/>
</g>
<circle class="st7" cx="390.6" cy="80.83" r="43.94"/>
<path class="st9" d="M417.67,67.93c-0.3,1.08-1.03,1.84-1.8,2.6c-10.39,10.37-20.76,20.75-31.14,31.12
	c-1.57,1.57-3.58,1.57-5.14,0.02c-0.45-0.45-0.9-0.9-1.35-1.34c-4.5-4.5-8.99-9-13.49-13.49c-1.63-1.63-1.63-3.62,0-5.25
	c1.56-1.56,3.11-3.12,4.67-4.67c1.58-1.58,3.59-1.57,5.18,0.02c2.38,2.38,4.76,4.76,7.14,7.14c0.12,0.12,0.25,0.24,0.41,0.39
	c0.17-0.16,0.32-0.3,0.46-0.44c8.01-8.01,16.02-16.02,24.03-24.03c1.54-1.54,3.56-1.55,5.11-0.03c0.11,0.11,0.23,0.22,0.34,0.34
	c1.3,1.3,2.58,2.61,3.89,3.88c0.74,0.72,1.42,1.46,1.69,2.49C417.67,67.09,417.67,67.51,417.67,67.93z"/>
<circle class="st5" cx="217.17" cy="392.98" r="45.35"/>
<path class="st11" d="M234.29,346.44h5.77c0,0,11.38-57.47,8.56-73.47c0,0-16.83,28.33-15.76,53.35L234.29,346.44z"/>
<polygon class="st6" points="234.29,346.44 240.06,346.44 237.32,357.58 235.17,357.29 "/>
<path class="st9" d="M132.47,237.07c0-26.79-21.72-48.51-48.51-48.51s-48.51,21.72-48.51,48.51s21.72,48.51,48.51,48.51
	c1.76,0,3.5-0.1,5.21-0.28c3.41,2.93,7.45,7.59,10.1,9.76c4.9,4,7.02-2.13,7.02-2.13l2.62-14.26
	C123.02,270.2,132.47,254.74,132.47,237.07z"/>
<g>
	<line class="st8" x1="62.08" y1="233.24" x2="101.83" y2="219.2"/>
	<line class="st8" x1="64.66" y1="241.08" x2="104.96" y2="228.74"/>
	<line class="st8" x1="68.18" y1="249.89" x2="108.49" y2="237.54"/>
</g>
<g>
	<path class="st7" d="M286.61,208.74c0,0-7.58,11.79-8.09,12.38"/>
	<path class="st12" d="M286.65,208.77c-1.21,2.15-2.45,4.29-3.72,6.4c-0.63,1.06-1.2,2.16-1.93,3.15c-0.74,0.99-1.49,1.97-2.44,2.83
		l-0.08-0.07c0.48-1.15,1.05-2.25,1.68-3.31c0.61-1.07,1.39-2.03,2.1-3.04c1.41-2.02,2.85-4.03,4.3-6.02L286.65,208.77z"/>
</g>
<path class="st13" d="M247.27,191.37l-4.24,5.19c0,0,10.58,6.46,19.07,7.67c0,0,10.59,1.83,11.4-1.61c0,0,0.36-2.87-9.57-3.95
	C263.93,198.67,254.3,197.73,247.27,191.37z"/>
<path class="st9" d="M212.56,238.88c0,0-8.04-10.07-10.59-13.07s-5.94-8.74-8.74-14.49c0,0-6.45-9.96-7.34-12.19
	c0,0-2.43-3.45,0.26-6.26c2.68-2.81,9.89-12.77,9.89-12.77s24.57-26.3,31.6-29.11c0,0,3.31-0.54,2.9-4.35c0,0-4.51-4.1-1.23-6.5
	c0,0,4.68-2.46,5.21-5.39l0.06-3.16l1.35,0.23l3.45,2.46l0.53-0.53c0,0,2.93,4.68-5.39,9.07l0.06,2.81l1.87,0.06l28.8-16.51
	l56.02-34.83l1.11,6.38l-48.71,40.47c0,0-16.47,13.53-16.6,16.85l-1.91,3.96l-33.83,58.34l-2.81-33.57c0,0-0.26-2.94-2.04-1.66
	l-13.15,12.77c0,0-2.3,1.53,0.26,5.62l12.64,30.13L212.56,238.88z"/>
<path class="st14" d="M235.6,155.17c0,0-0.72,24.03,21.5,36.84c0,0,14.25,6.4,23.79,5.19l2.78-1.81l-2.29-3.14
	c0,0-34.9,0.24-45.29-36.96"/>
<path class="st3" d="M212.66,239.23c0,0,1.69-4.23,4.23-5.31l2.66,7c0,0,2.17,6.76-1.45,3.74L212.66,239.23z"/>
<path class="st3" d="M322.54,101.02c0,0-1.13-3.91-1.17-6.66l9.72-5.89c0,0,2.27,0.53,0.4,4.26L322.54,101.02z"/>
</svg>
